# xmcd
#
# Track frame offsets: 
#        150
#        15748
#        24943
#        42941
#        56222
#        67256
#        86320
#        101173
#        121667
#        144141
#        159223
#        170077
#        188544
#        207596
#        221683
#        231659
#        242082
#        258537
#        279591
#        292643
#        308028
#        324742
#
# Disc length: 4585 seconds
#
# Revision: 0
# Processed by: cddbd v1.5.1PL2 Copyright (c) Steve Scherf et al.
# Submitted via: ExactAudioCopy v0.95a4
#
DISCID=3d11e716
DTITLE=Various Artist - 98.1 KVET Genuine Austin Gospel Music
DYEAR=2005
DGENRE=Gospel
TTITLE0=Please See Me - Boxcar Preachers
TTITLE1=I Know a Man - Cross Canadian Ragweed
TTITLE2=Just a Closer Walk With The - Pauline Reese
TTITLE3=Let's Talk about Jesus - Bells of Joy
TTITLE4=Twelve Gates to the City - Jim Stricklan
TTITLE5=I Signed on for More - Roger Creager
TTITLE6=Listen With Your Heart - Kyle Family
TTITLE7=How Great Thou Art - The Stillpoint Band
TTITLE8=Can't Figure How - Jason Boland and the Stragglers
TTITLE9=Fill 'er Up - Kyle Hutton
TTITLE10=Two Boards, Three Nails - Monte Warden
TTITLE11=Hung Down Head - Mike McClure and Susan Gibson
TTITLE12=Wayfaring Stranger - Bonnie Bishop
TTITLE13=Don't Cry For Me - Jack Ingram
TTITLE14=End of the Trail - Doug Moreland
TTITLE15=Meet Me Up There - Jason Allen
TTITLE16=What a Friend We Have in Jesus - Jamie Richards
TTITLE17=Were You there - Drew and Tres Womack
TTITLE18=The Old Rugged Cross - Ricky Calmbach
TTITLE19=We Need a Little Help Down Here - Allie Danielle
TTITLE20=Amazing Grace - Matt Skinner and Pauline Reese
TTITLE21=Trouble with Amen Corner - Bob Cole
EXTD=
EXTT0=
EXTT1=
EXTT2=
EXTT3=
EXTT4=
EXTT5=
EXTT6=
EXTT7=
EXTT8=
EXTT9=
EXTT10=
EXTT11=
EXTT12=
EXTT13=
EXTT14=
EXTT15=
EXTT16=
EXTT17=
EXTT18=
EXTT19=
EXTT20=
EXTT21=
PLAYORDER=
